<mxfile host="app.diagrams.net" modified="2021-03-23T15:02:50.165Z" agent="5.0 (X11)" etag="ND1AvEnAlE-NvGyTTwFB" version="14.5.0" type="github">
  <diagram id="HmOfZYTG64YHmNgg0cFz" name="Page-1">
    <mxGraphModel dx="1422" dy="804" grid="1" gridSize="10" guides="1" tooltips="1" connect="1" arrows="1" fold="1" page="1" pageScale="1" pageWidth="827" pageHeight="1169" math="0" shadow="0">
      <root>
        <mxCell id="0" />
        <mxCell id="1" parent="0" />
        <mxCell id="nCu0wqQnDUxv6DsL6TeF-1" value="&lt;div&gt;Test&lt;/div&gt;" style="text;html=1;strokeColor=none;fillColor=none;align=center;verticalAlign=middle;whiteSpace=wrap;rounded=0;" vertex="1" parent="1">
          <mxGeometry x="410" y="270" width="40" height="20" as="geometry" />
        </mxCell>
      </root>
    </mxGraphModel>
  </diagram>
</mxfile>
